<mxfile host="app.diagrams.net" modified="2021-11-18T09:34:06.498Z" agent="5.0 (Windows NT 10.0; Win64; x64) AppleWebKit/537.36 (KHTML, like Gecko) Chrome/95.0.4638.69 Safari/537.36" etag="oIS5cvNGlBGPMJQda2Z2" version="15.7.3" type="github">
  <diagram id="6ephSyW1qQVcIrs40IQ5" name="Page-1">
    <mxGraphModel dx="2249" dy="762" grid="1" gridSize="10" guides="1" tooltips="1" connect="1" arrows="1" fold="1" page="1" pageScale="1" pageWidth="827" pageHeight="1169" math="0" shadow="0">
      <root>
        <mxCell id="0" />
        <mxCell id="1" parent="0" />
        <mxCell id="_ytuqsXfrPYh7AB3Q8dl-1" value="前置扫码校验" style="rounded=1;whiteSpace=wrap;html=1;strokeWidth=1;fillWeight=4;hachureGap=8;hachureAngle=45;fillColor=#dae8fc;sketch=1;strokeColor=#6c8ebf;" vertex="1" parent="1">
          <mxGeometry x="100" y="110" width="150" height="30" as="geometry" />
        </mxCell>
        <mxCell id="_ytuqsXfrPYh7AB3Q8dl-3" value="" style="line;strokeWidth=1;html=1;dashed=1;flipH=1;flipV=1;fillColor=#ffe6cc;strokeColor=#d79b00;" vertex="1" parent="1">
          <mxGeometry x="80" y="210" width="650" height="10" as="geometry" />
        </mxCell>
        <mxCell id="_ytuqsXfrPYh7AB3Q8dl-5" value="&lt;b&gt;厂商前端&lt;/b&gt;" style="text;html=1;align=center;verticalAlign=middle;resizable=0;points=[];autosize=1;strokeColor=none;fillColor=none;" vertex="1" parent="1">
          <mxGeometry y="270" width="60" height="20" as="geometry" />
        </mxCell>
        <mxCell id="_ytuqsXfrPYh7AB3Q8dl-6" value="" style="line;strokeWidth=1;html=1;dashed=1;flipH=1;flipV=1;fillColor=#ffe6cc;strokeColor=#d79b00;" vertex="1" parent="1">
          <mxGeometry x="80" y="340" width="650" height="10" as="geometry" />
        </mxCell>
        <mxCell id="_ytuqsXfrPYh7AB3Q8dl-7" value="&lt;b&gt;数据埋点&lt;/b&gt;" style="text;html=1;align=center;verticalAlign=middle;resizable=0;points=[];autosize=1;strokeColor=none;fillColor=none;" vertex="1" parent="1">
          <mxGeometry y="400" width="60" height="20" as="geometry" />
        </mxCell>
        <mxCell id="_ytuqsXfrPYh7AB3Q8dl-8" value="" style="line;strokeWidth=1;html=1;dashed=1;flipH=1;flipV=1;fillColor=#ffe6cc;strokeColor=#d79b00;" vertex="1" parent="1">
          <mxGeometry x="80" y="470" width="650" height="10" as="geometry" />
        </mxCell>
        <mxCell id="_ytuqsXfrPYh7AB3Q8dl-9" value="&lt;b&gt;第三方页面、服务&lt;/b&gt;" style="text;html=1;align=center;verticalAlign=middle;resizable=0;points=[];autosize=1;strokeColor=none;fillColor=none;" vertex="1" parent="1">
          <mxGeometry x="-15" y="530" width="110" height="20" as="geometry" />
        </mxCell>
        <mxCell id="_ytuqsXfrPYh7AB3Q8dl-10" value="" style="line;strokeWidth=1;html=1;dashed=1;flipH=1;flipV=1;fillColor=#ffe6cc;strokeColor=#d79b00;" vertex="1" parent="1">
          <mxGeometry x="80" y="600" width="650" height="10" as="geometry" />
        </mxCell>
        <mxCell id="_ytuqsXfrPYh7AB3Q8dl-11" value="&lt;b&gt;check逻辑&lt;/b&gt;" style="text;html=1;align=center;verticalAlign=middle;resizable=0;points=[];autosize=1;strokeColor=none;fillColor=none;" vertex="1" parent="1">
          <mxGeometry x="-5" y="140" width="70" height="20" as="geometry" />
        </mxCell>
        <mxCell id="_ytuqsXfrPYh7AB3Q8dl-12" value="" style="line;strokeWidth=1;html=1;dashed=1;flipH=1;flipV=1;fillColor=#ffe6cc;strokeColor=#d79b00;" vertex="1" parent="1">
          <mxGeometry x="80" y="90" width="650" height="10" as="geometry" />
        </mxCell>
        <mxCell id="_ytuqsXfrPYh7AB3Q8dl-13" value="用户领取记录校验" style="rounded=1;whiteSpace=wrap;html=1;strokeWidth=1;fillWeight=4;hachureGap=8;hachureAngle=45;fillColor=#dae8fc;sketch=1;strokeColor=#6c8ebf;" vertex="1" parent="1">
          <mxGeometry x="280" y="110" width="150" height="30" as="geometry" />
        </mxCell>
        <mxCell id="_ytuqsXfrPYh7AB3Q8dl-14" value="微信环境校验" style="rounded=1;whiteSpace=wrap;html=1;strokeWidth=1;fillWeight=4;hachureGap=8;hachureAngle=45;fillColor=#dae8fc;sketch=1;strokeColor=#6c8ebf;" vertex="1" parent="1">
          <mxGeometry x="460" y="110" width="150" height="30" as="geometry" />
        </mxCell>
        <mxCell id="_ytuqsXfrPYh7AB3Q8dl-15" value="用户实验校验" style="rounded=1;whiteSpace=wrap;html=1;strokeWidth=1;fillWeight=4;hachureGap=8;hachureAngle=45;fillColor=#dae8fc;sketch=1;strokeColor=#6c8ebf;" vertex="1" parent="1">
          <mxGeometry x="100" y="160" width="150" height="30" as="geometry" />
        </mxCell>
        <mxCell id="_ytuqsXfrPYh7AB3Q8dl-16" value="新用户校验" style="rounded=1;whiteSpace=wrap;html=1;strokeWidth=1;fillWeight=4;hachureGap=8;hachureAngle=45;fillColor=#dae8fc;sketch=1;strokeColor=#6c8ebf;" vertex="1" parent="1">
          <mxGeometry x="280" y="160" width="150" height="30" as="geometry" />
        </mxCell>
        <mxCell id="_ytuqsXfrPYh7AB3Q8dl-17" value="活动数据校验" style="rounded=1;whiteSpace=wrap;html=1;strokeWidth=1;fillWeight=4;hachureGap=8;hachureAngle=45;fillColor=#dae8fc;sketch=1;strokeColor=#6c8ebf;" vertex="1" parent="1">
          <mxGeometry x="460" y="160" width="150" height="30" as="geometry" />
        </mxCell>
        <mxCell id="_ytuqsXfrPYh7AB3Q8dl-18" value="兜底页面" style="rounded=1;whiteSpace=wrap;html=1;strokeWidth=1;fillWeight=4;hachureGap=8;hachureAngle=45;fillColor=#dae8fc;sketch=1;strokeColor=#6c8ebf;" vertex="1" parent="1">
          <mxGeometry x="110" y="240" width="150" height="30" as="geometry" />
        </mxCell>
        <mxCell id="_ytuqsXfrPYh7AB3Q8dl-19" value="领取历史记录页面" style="rounded=1;whiteSpace=wrap;html=1;strokeWidth=1;fillWeight=4;hachureGap=8;hachureAngle=45;fillColor=#dae8fc;sketch=1;strokeColor=#6c8ebf;" vertex="1" parent="1">
          <mxGeometry x="290" y="240" width="150" height="30" as="geometry" />
        </mxCell>
        <mxCell id="_ytuqsXfrPYh7AB3Q8dl-20" value="站外页面" style="rounded=1;whiteSpace=wrap;html=1;strokeWidth=1;fillWeight=4;hachureGap=8;hachureAngle=45;fillColor=#dae8fc;sketch=1;strokeColor=#6c8ebf;" vertex="1" parent="1">
          <mxGeometry x="110" y="300" width="150" height="30" as="geometry" />
        </mxCell>
        <mxCell id="_ytuqsXfrPYh7AB3Q8dl-21" value="AB实验团员奖励页面" style="rounded=1;whiteSpace=wrap;html=1;strokeWidth=1;fillWeight=4;hachureGap=8;hachureAngle=45;fillColor=#dae8fc;sketch=1;strokeColor=#6c8ebf;" vertex="1" parent="1">
          <mxGeometry x="290" y="300" width="150" height="30" as="geometry" />
        </mxCell>
        <mxCell id="_ytuqsXfrPYh7AB3Q8dl-22" value="抽奖页面" style="rounded=1;whiteSpace=wrap;html=1;strokeWidth=1;fillWeight=4;hachureGap=8;hachureAngle=45;fillColor=#dae8fc;sketch=1;strokeColor=#6c8ebf;" vertex="1" parent="1">
          <mxGeometry x="490" y="240" width="150" height="30" as="geometry" />
        </mxCell>
        <mxCell id="_ytuqsXfrPYh7AB3Q8dl-32" style="edgeStyle=orthogonalEdgeStyle;rounded=0;orthogonalLoop=1;jettySize=auto;html=1;exitX=1;exitY=0.5;exitDx=0;exitDy=0;entryX=0;entryY=0.5;entryDx=0;entryDy=0;" edge="1" parent="1" source="_ytuqsXfrPYh7AB3Q8dl-23" target="_ytuqsXfrPYh7AB3Q8dl-24">
          <mxGeometry relative="1" as="geometry" />
        </mxCell>
        <mxCell id="_ytuqsXfrPYh7AB3Q8dl-23" value="页面page_sn、元素page_el_en" style="rounded=1;whiteSpace=wrap;html=1;strokeWidth=1;fillWeight=4;hachureGap=8;hachureAngle=45;fillColor=#dae8fc;sketch=1;strokeColor=#6c8ebf;" vertex="1" parent="1">
          <mxGeometry x="240" y="380" width="110" height="50" as="geometry" />
        </mxCell>
        <mxCell id="_ytuqsXfrPYh7AB3Q8dl-36" value="pass" style="edgeStyle=orthogonalEdgeStyle;rounded=0;orthogonalLoop=1;jettySize=auto;html=1;exitX=0.5;exitY=1;exitDx=0;exitDy=0;entryX=0.5;entryY=0;entryDx=0;entryDy=0;" edge="1" parent="1" source="_ytuqsXfrPYh7AB3Q8dl-24" target="_ytuqsXfrPYh7AB3Q8dl-35">
          <mxGeometry relative="1" as="geometry" />
        </mxCell>
        <mxCell id="_ytuqsXfrPYh7AB3Q8dl-48" style="edgeStyle=orthogonalEdgeStyle;rounded=0;orthogonalLoop=1;jettySize=auto;html=1;exitX=1;exitY=0.5;exitDx=0;exitDy=0;entryX=0;entryY=0.5;entryDx=0;entryDy=0;entryPerimeter=0;fontColor=#FF0D35;" edge="1" parent="1" source="_ytuqsXfrPYh7AB3Q8dl-24" target="_ytuqsXfrPYh7AB3Q8dl-47">
          <mxGeometry relative="1" as="geometry" />
        </mxCell>
        <mxCell id="_ytuqsXfrPYh7AB3Q8dl-24" value="时机校验" style="rhombus;whiteSpace=wrap;html=1;strokeWidth=1;fillWeight=-1;hachureGap=8;fillStyle=cross-hatch;fillColor=#dae8fc;sketch=1;strokeColor=#6c8ebf;" vertex="1" parent="1">
          <mxGeometry x="380" y="383" width="90" height="45" as="geometry" />
        </mxCell>
        <mxCell id="_ytuqsXfrPYh7AB3Q8dl-27" style="edgeStyle=orthogonalEdgeStyle;rounded=0;orthogonalLoop=1;jettySize=auto;html=1;exitX=1;exitY=0.5;exitDx=0;exitDy=0;entryX=0;entryY=0.5;entryDx=0;entryDy=0;" edge="1" parent="1" source="_ytuqsXfrPYh7AB3Q8dl-25" target="_ytuqsXfrPYh7AB3Q8dl-23">
          <mxGeometry relative="1" as="geometry" />
        </mxCell>
        <mxCell id="_ytuqsXfrPYh7AB3Q8dl-25" value="点击埋点" style="rounded=1;whiteSpace=wrap;html=1;strokeWidth=1;fillWeight=4;hachureGap=8;hachureAngle=45;fillColor=#dae8fc;sketch=1;strokeColor=#6c8ebf;" vertex="1" parent="1">
          <mxGeometry x="100" y="371.25" width="100" height="30" as="geometry" />
        </mxCell>
        <mxCell id="_ytuqsXfrPYh7AB3Q8dl-29" style="edgeStyle=orthogonalEdgeStyle;rounded=0;orthogonalLoop=1;jettySize=auto;html=1;exitX=1;exitY=0.5;exitDx=0;exitDy=0;entryX=0;entryY=0.5;entryDx=0;entryDy=0;" edge="1" parent="1" source="_ytuqsXfrPYh7AB3Q8dl-26" target="_ytuqsXfrPYh7AB3Q8dl-23">
          <mxGeometry relative="1" as="geometry" />
        </mxCell>
        <mxCell id="_ytuqsXfrPYh7AB3Q8dl-26" value="曝光埋点" style="rounded=1;whiteSpace=wrap;html=1;strokeWidth=1;fillWeight=4;hachureGap=8;hachureAngle=45;fillColor=#dae8fc;sketch=1;strokeColor=#6c8ebf;" vertex="1" parent="1">
          <mxGeometry x="100" y="418.75" width="100" height="30" as="geometry" />
        </mxCell>
        <mxCell id="_ytuqsXfrPYh7AB3Q8dl-35" value="埋点系统" style="ellipse;whiteSpace=wrap;html=1;strokeWidth=1;fillWeight=2;hachureGap=8;fillColor=#e1d5e7;fillStyle=dots;sketch=1;strokeColor=#9673a6;" vertex="1" parent="1">
          <mxGeometry x="365" y="510" width="120" height="60" as="geometry" />
        </mxCell>
        <mxCell id="_ytuqsXfrPYh7AB3Q8dl-40" value="&lt;span style=&quot;color: rgba(0 , 0 , 0 , 0) ; font-family: monospace ; font-size: 0px&quot;&gt;%3CmxGraphModel%3E%3Croot%3E%3CmxCell%20id%3D%220%22%2F%3E%3CmxCell%20id%3D%221%22%20parent%3D%220%22%2F%3E%3CmxCell%20id%3D%222%22%20value%3D%22%E6%9E%9C%E5%9B%AD%E9%A1%B5%E9%9D%A2%22%20style%3D%22ellipse%3BwhiteSpace%3Dwrap%3Bhtml%3D1%3BstrokeWidth%3D1%3BfillWeight%3D2%3BhachureGap%3D8%3BfillColor%3D%23e1d5e7%3BfillStyle%3Ddots%3Bsketch%3D1%3BstrokeColor%3D%239673a6%3B%22%20vertex%3D%221%22%20parent%3D%221%22%3E%3CmxGeometry%20x%3D%22540%22%20y%3D%22500%22%20width%3D%22100%22%20height%3D%2230%22%20as%3D%22geometry%22%2F%3E%3C%2FmxCell%3E%3C%2Froot%3E%3C%2FmxGraphModel%3E&lt;/span&gt;" style="ellipse;whiteSpace=wrap;html=1;strokeWidth=1;fillWeight=2;hachureGap=8;fillColor=#e1d5e7;fillStyle=dots;sketch=1;strokeColor=#9673a6;" vertex="1" parent="1">
          <mxGeometry x="520" y="490" width="230" height="100" as="geometry" />
        </mxCell>
        <mxCell id="_ytuqsXfrPYh7AB3Q8dl-41" value="&lt;b&gt;&lt;font color=&quot;#ff0d35&quot;&gt;活动页&lt;/font&gt;&lt;/b&gt;" style="text;html=1;align=center;verticalAlign=middle;resizable=0;points=[];autosize=1;strokeColor=none;fillColor=none;" vertex="1" parent="1">
          <mxGeometry x="610" y="490" width="50" height="20" as="geometry" />
        </mxCell>
        <mxCell id="_ytuqsXfrPYh7AB3Q8dl-43" value="果园页面" style="ellipse;whiteSpace=wrap;html=1;strokeWidth=1;fillWeight=2;hachureGap=8;fillColor=#e1d5e7;fillStyle=dots;sketch=1;strokeColor=#9673a6;" vertex="1" parent="1">
          <mxGeometry x="540" y="510" width="100" height="30" as="geometry" />
        </mxCell>
        <mxCell id="_ytuqsXfrPYh7AB3Q8dl-44" value="买菜全额返页面" style="ellipse;whiteSpace=wrap;html=1;strokeWidth=1;fillWeight=2;hachureGap=8;fillColor=#e1d5e7;fillStyle=dots;sketch=1;strokeColor=#9673a6;" vertex="1" parent="1">
          <mxGeometry x="644" y="510" width="100" height="30" as="geometry" />
        </mxCell>
        <mxCell id="_ytuqsXfrPYh7AB3Q8dl-45" value="..." style="ellipse;whiteSpace=wrap;html=1;strokeWidth=1;fillWeight=2;hachureGap=8;fillColor=#e1d5e7;fillStyle=dots;sketch=1;strokeColor=#9673a6;" vertex="1" parent="1">
          <mxGeometry x="585" y="550" width="100" height="30" as="geometry" />
        </mxCell>
        <mxCell id="_ytuqsXfrPYh7AB3Q8dl-46" value="market utils" style="ellipse;whiteSpace=wrap;html=1;strokeWidth=1;fillWeight=2;hachureGap=8;fillColor=#e1d5e7;fillStyle=dots;sketch=1;strokeColor=#9673a6;" vertex="1" parent="1">
          <mxGeometry x="130" y="510" width="120" height="60" as="geometry" />
        </mxCell>
        <mxCell id="_ytuqsXfrPYh7AB3Q8dl-47" value="不上报" style="strokeWidth=1;html=1;shape=mxgraph.flowchart.terminator;whiteSpace=wrap;fillColor=#dae8fc;strokeColor=#6c8ebf;" vertex="1" parent="1">
          <mxGeometry x="510" y="380.5" width="90" height="50" as="geometry" />
        </mxCell>
      </root>
    </mxGraphModel>
  </diagram>
</mxfile>
